BJORK 29/11/97

SONG...Hunter

Format : AVI
Format/Info : Audio Video Interleave
File size : 43.4 MiB
Duration : 4mn 3s
Overall bit rate : 1 493 Kbps

Video
Format : MPEG-4 Visual
Format settings, BVOP : Yes
Format settings, QPel : No
Format settings, GMC : No warppoints
Format settings, Matrix : Default (H.263)
Muxing mode : Packed bitstream
Codec ID : DX50
Codec ID/Hint : DivX 5
Duration : 4mn 3s
Bit rate : 1 100 Kbps
Width : 672 pixels
Height : 384 pixels
Display aspect ratio : 16/9
Frame rate : 25.000 fps
Resolution : 24 bits
Colorimetry : 4:2:0
Scan type : Progressive
Bits/(Pixel*Frame) : 0.171
Stream size : 32.0 MiB (74%)
Title : Video
Writing library : DivX 6.8.2 (UTC 2008-05-17)

Audio
Format : AC-3
Format/Info : Audio Coding 3
Codec ID : 2000
Duration : 4mn 3s
Bit rate mode : Constant
Bit rate : 384 Kbps
Channel(s) : 2 channels
Channel positions : L R
Sampling rate : 48.0 KHz
Stream size : 11.2 MiB (26%)
Alignment : Split accross interleaves
Interleave, duration : 40 ms (1.00 video frame)
Interleave, preload duration : 500 ms
Title : Audio